<svg xmlns="http://www.w3.org/2000/svg" width="127" height="32" fill="none" viewBox="0 0 127 32"><g opacity=".15"><path fill="#fff" d="M4.576 4.52C5.13067 4.52 5.61067 4.72267 6.016 5.128C6.42133 5.53333 6.624 6.01333 6.624 6.568C6.624 7.12267 6.42133 7.60267 6.016 8.008C5.61067 8.41333 5.13067 8.616 4.576 8.616C4.02133 8.616 3.54133 8.41333 3.136 8.008C2.73067 7.60267 2.528 7.12267 2.528 6.568C2.528 6.01333 2.73067 5.53333 3.136 5.128C3.54133 4.72267 4.02133 4.52 4.576 4.52ZM6.24 12.168V26.024C6.24 26.92 6.42133 27.528 6.784 27.848C7.168 28.168 7.79733 28.328 8.672 28.328V29C8.30933 28.9787 7.75467 28.9573 7.008 28.936C6.28267 28.8933 5.54667 28.872 4.8 28.872C4.07467 28.872 3.33867 28.8933 2.592 28.936C1.84533 28.9573 1.29067 28.9787 0.928 29V28.328C1.80267 28.328 2.42133 28.168 2.784 27.848C3.168 27.528 3.36 26.92 3.36 26.024V16.008C3.36 15.048 3.18933 14.344 2.848 13.896C2.50667 13.4267 1.86667 13.192 0.928 13.192V12.52C1.61067 12.584 2.272 12.616 2.912 12.616C3.53067 12.616 4.11733 12.584 4.672 12.52C5.248 12.4347 5.77067 12.3173 6.24 12.168ZM21.055 12.072C21.8657 12.072 22.5377 12.1787 23.071 12.392C23.6257 12.6053 24.0843 12.904 24.447 13.288C24.8523 13.7147 25.1403 14.248 25.311 14.888C25.4817 15.528 25.567 16.392 25.567 17.48V26.024C25.567 26.92 25.7483 27.528 26.111 27.848C26.495 28.168 27.1243 28.328 27.999 28.328V29C27.6363 28.9787 27.0817 28.9573 26.335 28.936C25.5883 28.8933 24.863 28.872 24.159 28.872C23.455 28.872 22.7617 28.8933 22.079 28.936C21.4177 28.9573 20.9163 28.9787 20.575 29V28.328C21.343 28.328 21.887 28.168 22.207 27.848C22.527 27.528 22.687 26.92 22.687 26.024V16.776C22.687 16.1147 22.6337 15.5067 22.527 14.952C22.4203 14.3973 22.175 13.9493 21.791 13.608C21.4283 13.2667 20.863 13.096 20.095 13.096C19.199 13.096 18.4097 13.352 17.727 13.864C17.0657 14.376 16.543 15.08 16.159 15.976C15.7963 16.8507 15.615 17.832 15.615 18.92V26.024C15.615 26.92 15.775 27.528 16.095 27.848C16.415 28.168 16.959 28.328 17.727 28.328V29C17.3857 28.9787 16.8737 28.9573 16.191 28.936C15.5297 28.8933 14.847 28.872 14.143 28.872C13.439 28.872 12.7137 28.8933 11.967 28.936C11.2203 28.9573 10.6657 28.9787 10.303 29V28.328C11.1777 28.328 11.7963 28.168 12.159 27.848C12.543 27.528 12.735 26.92 12.735 26.024V16.008C12.735 15.048 12.5643 14.344 12.223 13.896C11.8817 13.4267 11.2417 13.192 10.303 13.192V12.52C10.9857 12.584 11.647 12.616 12.287 12.616C12.9057 12.616 13.4923 12.584 14.047 12.52C14.623 12.4347 15.1457 12.3173 15.615 12.168V15.944C16.1697 14.4933 16.9377 13.4907 17.919 12.936C18.9217 12.36 19.967 12.072 21.055 12.072ZM34.5488 7.208V12.552H39.2848V13.192H34.5488V25.576C34.5488 26.5787 34.7301 27.2827 35.0928 27.688C35.4554 28.0933 35.9568 28.296 36.5968 28.296C37.2368 28.296 37.7914 28.04 38.2608 27.528C38.7301 26.9947 39.1354 26.1093 39.4768 24.872L40.1168 25.032C39.9034 26.2693 39.4768 27.3147 38.8368 28.168C38.2181 29.0213 37.2581 29.448 35.9568 29.448C35.2314 29.448 34.6341 29.352 34.1648 29.16C33.6954 28.9893 33.2794 28.7333 32.9168 28.392C32.4474 27.9013 32.1168 27.3147 31.9248 26.632C31.7541 25.9493 31.6688 25.0427 31.6688 23.912V13.192H28.5968V12.552H31.6688V7.656C32.2021 7.63467 32.7141 7.592 33.2048 7.528C33.6954 7.464 34.1434 7.35733 34.5488 7.208ZM48.4853 12.072C50.3626 12.072 51.8239 12.648 52.8693 13.8C53.9359 14.9307 54.4693 16.7013 54.4693 19.112H43.1733L43.1413 18.504H51.3973C51.4399 17.4587 51.3546 16.4987 51.1413 15.624C50.9279 14.728 50.5866 14.0133 50.1173 13.48C49.6693 12.9467 49.0826 12.68 48.3573 12.68C47.3759 12.68 46.5013 13.1707 45.7333 14.152C44.9866 15.1333 44.5386 16.6907 44.3893 18.824L44.4852 18.952C44.4426 19.272 44.4106 19.624 44.3893 20.008C44.3679 20.392 44.3573 20.776 44.3573 21.16C44.3573 22.6107 44.5919 23.8587 45.0613 24.904C45.5306 25.9493 46.1386 26.7493 46.8853 27.304C47.6533 27.8373 48.4426 28.104 49.2533 28.104C49.8933 28.104 50.5013 28.008 51.0773 27.816C51.6533 27.6027 52.1866 27.2613 52.6773 26.792C53.1679 26.3227 53.5946 25.6933 53.9573 24.904L54.5973 25.16C54.3626 25.864 53.9786 26.5467 53.4453 27.208C52.9119 27.8693 52.2399 28.4133 51.4293 28.84C50.6186 29.2453 49.6799 29.448 48.6133 29.448C47.0773 29.448 45.7546 29.096 44.6453 28.392C43.5573 27.688 42.7146 26.7173 42.1173 25.48C41.5413 24.2213 41.2533 22.7813 41.2533 21.16C41.2533 19.2827 41.5519 17.672 42.1493 16.328C42.7466 14.9627 43.5893 13.9173 44.6773 13.192C45.7653 12.4453 47.0346 12.072 48.4853 12.072ZM66.8488 12.072C67.4248 12.072 67.9261 12.1893 68.3528 12.424C68.8008 12.6587 69.1421 12.968 69.3768 13.352C69.6328 13.7147 69.7608 14.1307 69.7608 14.6C69.7608 15.1333 69.5901 15.6027 69.2488 16.008C68.9288 16.4133 68.4914 16.616 67.9368 16.616C67.4888 16.616 67.0941 16.4773 66.7528 16.2C66.4114 15.9013 66.2408 15.4853 66.2408 14.952C66.2408 14.5467 66.3474 14.2053 66.5608 13.928C66.7954 13.6293 67.0514 13.3947 67.3288 13.224C67.1794 13.0107 66.9554 12.904 66.6568 12.904C65.9954 12.904 65.3874 13.1067 64.8328 13.512C64.2781 13.896 63.8088 14.3973 63.4248 15.016C63.0408 15.6347 62.7421 16.296 62.5288 17C62.3154 17.6827 62.2088 18.3227 62.2088 18.92V25.704C62.2088 26.7493 62.5074 27.4533 63.1048 27.816C63.7234 28.1573 64.5554 28.328 65.6008 28.328V29C65.1101 28.9787 64.4168 28.9573 63.5208 28.936C62.6248 28.8933 61.6754 28.872 60.6727 28.872C59.9474 28.872 59.2221 28.8933 58.4968 28.936C57.7928 28.9573 57.2594 28.9787 56.8968 29V28.328C57.7714 28.328 58.3901 28.168 58.7528 27.848C59.1368 27.528 59.3288 26.92 59.3288 26.024V16.008C59.3288 15.048 59.1581 14.344 58.8168 13.896C58.4754 13.4267 57.8354 13.192 56.8968 13.192V12.52C57.5794 12.584 58.2408 12.616 58.8808 12.616C59.4994 12.616 60.0861 12.584 60.6408 12.52C61.2168 12.4347 61.7394 12.3173 62.2088 12.168V16.168C62.4434 15.5493 62.7741 14.9307 63.2008 14.312C63.6488 13.672 64.1821 13.1387 64.8008 12.712C65.4194 12.2853 66.1021 12.072 66.8488 12.072ZM85.7708 12.52V13.16C85.3654 13.2027 84.9921 13.384 84.6508 13.704C84.3094 14.024 83.9894 14.5893 83.6908 15.4L78.4427 29.16C78.3574 29.16 78.2721 29.16 78.1868 29.16C78.1014 29.16 78.0054 29.16 77.8988 29.16L72.0108 14.984C71.6694 14.152 71.3281 13.6507 70.9868 13.48C70.6668 13.288 70.3894 13.192 70.1547 13.192V12.52C70.5814 12.5413 71.0188 12.5733 71.4668 12.616C71.9361 12.6373 72.4374 12.648 72.9708 12.648C73.6321 12.648 74.3254 12.6373 75.0508 12.616C75.7974 12.5947 76.4908 12.5627 77.1308 12.52V13.192C76.5974 13.192 76.1174 13.2347 75.6908 13.32C75.2854 13.384 75.0188 13.5867 74.8908 13.928C74.7841 14.2693 74.8908 14.856 75.2108 15.688L79.2108 25.576L79.0188 25.736L82.6668 16.168C82.9441 15.464 83.0508 14.9093 82.9868 14.504C82.9441 14.0773 82.7308 13.7573 82.3468 13.544C81.9841 13.3307 81.4188 13.2027 80.6508 13.16V12.52C81.0348 12.5413 81.3654 12.5627 81.6428 12.584C81.9201 12.584 82.1868 12.5947 82.4428 12.616C82.7201 12.616 83.0188 12.616 83.3388 12.616C83.8294 12.616 84.2668 12.6053 84.6508 12.584C85.0561 12.5627 85.4294 12.5413 85.7708 12.52ZM91.1595 29.224C90.2848 29.224 89.5275 29.064 88.8875 28.744C88.2475 28.4027 87.7568 27.9333 87.4155 27.336C87.0955 26.7387 86.9355 26.0453 86.9355 25.256C86.9355 24.3173 87.1488 23.5493 87.5755 22.952C88.0235 22.3547 88.5888 21.8747 89.2715 21.512C89.9542 21.1493 90.6688 20.8507 91.4155 20.616C92.1835 20.36 92.9088 20.1253 93.5915 19.912C94.2742 19.6773 94.8288 19.4107 95.2555 19.112C95.7035 18.8133 95.9275 18.4187 95.9275 17.928V15.944C95.9275 15.048 95.7888 14.3653 95.5115 13.896C95.2555 13.4267 94.9035 13.1173 94.4555 12.968C94.0075 12.7973 93.5062 12.712 92.9515 12.712C92.4182 12.712 91.8422 12.7867 91.2235 12.936C90.6262 13.0853 90.1462 13.3947 89.7835 13.864C90.1888 13.9493 90.5408 14.1627 90.8395 14.504C91.1382 14.8453 91.2875 15.2827 91.2875 15.816C91.2875 16.3493 91.1168 16.776 90.7755 17.096C90.4342 17.3947 89.9968 17.544 89.4635 17.544C88.8448 17.544 88.3862 17.352 88.0875 16.968C87.8102 16.5627 87.6715 16.1147 87.6715 15.624C87.6715 15.0693 87.8102 14.6213 88.0875 14.28C88.3648 13.9387 88.7168 13.6187 89.1435 13.32C89.6342 12.9787 90.2635 12.6907 91.0315 12.456C91.8208 12.2 92.7062 12.072 93.6875 12.072C94.5622 12.072 95.3088 12.1787 95.9275 12.392C96.5462 12.584 97.0582 12.872 97.4635 13.256C98.0182 13.768 98.3808 14.3973 98.5515 15.144C98.7222 15.8693 98.8075 16.744 98.8075 17.768V26.664C98.8075 27.1973 98.8822 27.5813 99.0315 27.816C99.2022 28.0507 99.4582 28.168 99.7995 28.168C100.034 28.168 100.258 28.1147 100.472 28.008C100.685 27.9013 100.941 27.7307 101.24 27.496L101.592 28.04C101.144 28.3813 100.717 28.6693 100.312 28.904C99.9062 29.1173 99.3622 29.224 98.6795 29.224C98.0608 29.224 97.5488 29.1173 97.1435 28.904C96.7382 28.6907 96.4288 28.3813 96.2155 27.976C96.0235 27.5493 95.9275 27.016 95.9275 26.376C95.3515 27.336 94.6582 28.0507 93.8475 28.52C93.0582 28.9893 92.1622 29.224 91.1595 29.224ZM92.3115 27.944C93.0155 27.944 93.6662 27.7413 94.2635 27.336C94.8822 26.9307 95.4368 26.3227 95.9275 25.512V19.24C95.6715 19.6027 95.2982 19.912 94.8075 20.168C94.3168 20.4027 93.7835 20.648 93.2075 20.904C92.6315 21.1387 92.0768 21.4267 91.5435 21.768C91.0315 22.088 90.6048 22.5147 90.2635 23.048C89.9222 23.5813 89.7515 24.2747 89.7515 25.128C89.7515 25.9813 89.9755 26.664 90.4235 27.176C90.8928 27.688 91.5222 27.944 92.3115 27.944ZM107.641 3.912V26.024C107.641 26.92 107.822 27.528 108.185 27.848C108.569 28.168 109.198 28.328 110.073 28.328V29C109.71 28.9787 109.156 28.9573 108.409 28.936C107.684 28.8933 106.948 28.872 106.201 28.872C105.476 28.872 104.74 28.8933 103.993 28.936C103.246 28.9573 102.692 28.9787 102.329 29V28.328C103.204 28.328 103.822 28.168 104.185 27.848C104.569 27.528 104.761 26.92 104.761 26.024V7.752C104.761 6.792 104.59 6.088 104.249 5.64C103.908 5.17067 103.268 4.936 102.329 4.936V4.264C103.012 4.328 103.673 4.36 104.313 4.36C104.932 4.36 105.518 4.328 106.073 4.264C106.649 4.17867 107.172 4.06133 107.641 3.912ZM114.813 25.352C115.368 25.352 115.848 25.5547 116.253 25.96C116.659 26.3653 116.861 26.8453 116.861 27.4C116.861 27.9547 116.659 28.4347 116.253 28.84C115.848 29.2453 115.368 29.448 114.813 29.448C114.259 29.448 113.779 29.2453 113.373 28.84C112.968 28.4347 112.765 27.9547 112.765 27.4C112.765 26.8453 112.968 26.3653 113.373 25.96C113.779 25.5547 114.259 25.352 114.813 25.352Z"/></g></svg>