<svg width="1280" height="964" viewBox="0 0 1280 964" fill="none" xmlns="http://www.w3.org/2000/svg">
<rect width="1280" height="964" fill="#1C1816"/>
<rect x="16" y="16" width="616" height="300" rx="16" fill="#28211D"/>
<circle cx="95" cy="95" r="63" fill="#6F6D66"/>
<circle cx="237" cy="95" r="63" fill="#6F6D66"/>
<circle cx="379" cy="95" r="63" fill="#6F6D66"/>
<rect x="648" y="16" width="300" height="300" rx="16" fill="#28211D"/>
<circle cx="727" cy="95" r="63" fill="#6F6D66"/>
<rect x="964" y="16" width="300" height="300" rx="16" fill="#28211D"/>
<rect x="332" y="332" width="300" height="300" rx="16" fill="#28211D"/>
<rect x="964" y="332" width="300" height="616" rx="16" fill="#28211D"/>
<circle cx="1043" cy="411.33" r="63" fill="#6F6D66"/>
<circle cx="1043" cy="411.33" r="63" fill="#6F6D66"/>
<circle cx="1185" cy="411.33" r="63" fill="#6F6D66"/>
<rect x="16" y="648" width="300" height="300" rx="16" fill="#28211D"/>
<circle cx="95" cy="726.66" r="63" fill="#6F6D66"/>
<circle cx="95" cy="726.66" r="63" fill="#6F6D66"/>
<circle cx="95" cy="727" r="63" fill="#6F6D66"/>
<circle cx="237" cy="869" r="63" fill="#6F6D66"/>
<circle cx="95" cy="869" r="63" fill="#6F6D66"/>
<circle cx="237" cy="727" r="63" fill="#6F6D66"/>
<rect x="648" y="648" width="300" height="300" rx="16" fill="#28211D"/>
<circle cx="727" cy="726.66" r="63" fill="#6F6D66"/>
<circle cx="869" cy="726.66" r="63" fill="#6F6D66"/>
<circle cx="727" cy="868.66" r="63" fill="#6F6D66"/>
</svg>
