<svg width="600" height="200" viewBox="0 0 600 200" fill="none" xmlns="http://www.w3.org/2000/svg">
<g clip-path="url(#clip0_76_2820)">
<rect width="600" height="200" rx="16" fill="#1C1816"/>
<circle cx="25" cy="13" r="1" fill="#3B3A37"/>
<circle cx="75" cy="13" r="1" fill="#3B3A37"/>
<circle cx="125" cy="13" r="1" fill="#3B3A37"/>
<circle cx="175" cy="13" r="1" fill="#3B3A37"/>
<circle cx="225" cy="13" r="1" fill="#3B3A37"/>
<circle cx="275" cy="13" r="1" fill="#3B3A37"/>
<circle cx="325" cy="13" r="1" fill="#3B3A37"/>
<circle cx="375" cy="13" r="1" fill="#3B3A37"/>
<circle cx="425" cy="13" r="1" fill="#3B3A37"/>
<circle cx="475" cy="13" r="1" fill="#3B3A37"/>
<circle cx="525" cy="13" r="1" fill="#3B3A37"/>
<circle cx="575" cy="13" r="1" fill="#3B3A37"/>
<circle cx="50" cy="38" r="1" fill="#3B3A37"/>
<circle cx="100" cy="38" r="1" fill="#3B3A37"/>
<circle cx="150" cy="38" r="1" fill="#3B3A37"/>
<circle cx="200" cy="38" r="1" fill="#3B3A37"/>
<circle cx="250" cy="38" r="1" fill="#3B3A37"/>
<circle cx="300" cy="38" r="1" fill="#3B3A37"/>
<circle cx="350" cy="38" r="1" fill="#3B3A37"/>
<circle cx="400" cy="38" r="1" fill="#3B3A37"/>
<circle cx="450" cy="38" r="1" fill="#3B3A37"/>
<circle cx="500" cy="38" r="1" fill="#3B3A37"/>
<circle cx="550" cy="38" r="1" fill="#3B3A37"/>
<circle cx="25" cy="63" r="1" fill="#3B3A37"/>
<circle cx="75" cy="63" r="1" fill="#3B3A37"/>
<circle cx="125" cy="63" r="1" fill="#3B3A37"/>
<circle cx="175" cy="63" r="1" fill="#3B3A37"/>
<circle cx="225" cy="63" r="1" fill="#3B3A37"/>
<circle cx="275" cy="63" r="1" fill="#3B3A37"/>
<circle cx="325" cy="63" r="1" fill="#3B3A37"/>
<circle cx="375" cy="63" r="1" fill="#3B3A37"/>
<circle cx="425" cy="63" r="1" fill="#3B3A37"/>
<circle cx="475" cy="63" r="1" fill="#3B3A37"/>
<circle cx="525" cy="63" r="1" fill="#3B3A37"/>
<circle cx="575" cy="63" r="1" fill="#3B3A37"/>
<circle cx="50" cy="88" r="1" fill="#3B3A37"/>
<circle cx="100" cy="88" r="1" fill="#3B3A37"/>
<circle cx="150" cy="88" r="1" fill="#3B3A37"/>
<circle cx="200" cy="88" r="1" fill="#3B3A37"/>
<circle cx="250" cy="88" r="1" fill="#3B3A37"/>
<circle cx="300" cy="88" r="1" fill="#3B3A37"/>
<circle cx="350" cy="88" r="1" fill="#3B3A37"/>
<circle cx="400" cy="88" r="1" fill="#3B3A37"/>
<circle cx="450" cy="88" r="1" fill="#3B3A37"/>
<circle cx="500" cy="88" r="1" fill="#3B3A37"/>
<circle cx="550" cy="88" r="1" fill="#3B3A37"/>
<circle cx="50" cy="138" r="1" fill="#3B3A37"/>
<circle cx="100" cy="138" r="1" fill="#3B3A37"/>
<circle cx="150" cy="138" r="1" fill="#3B3A37"/>
<circle cx="200" cy="138" r="1" fill="#3B3A37"/>
<circle cx="250" cy="138" r="1" fill="#3B3A37"/>
<circle cx="300" cy="138" r="1" fill="#3B3A37"/>
<circle cx="350" cy="138" r="1" fill="#3B3A37"/>
<circle cx="400" cy="138" r="1" fill="#3B3A37"/>
<circle cx="450" cy="138" r="1" fill="#3B3A37"/>
<circle cx="500" cy="138" r="1" fill="#3B3A37"/>
<circle cx="550" cy="138" r="1" fill="#3B3A37"/>
<circle cx="50" cy="188" r="1" fill="#3B3A37"/>
<circle cx="100" cy="188" r="1" fill="#3B3A37"/>
<circle cx="150" cy="188" r="1" fill="#3B3A37"/>
<circle cx="200" cy="188" r="1" fill="#3B3A37"/>
<circle cx="250" cy="188" r="1" fill="#3B3A37"/>
<circle cx="300" cy="188" r="1" fill="#3B3A37"/>
<circle cx="350" cy="188" r="1" fill="#3B3A37"/>
<circle cx="400" cy="188" r="1" fill="#3B3A37"/>
<circle cx="450" cy="188" r="1" fill="#3B3A37"/>
<circle cx="500" cy="188" r="1" fill="#3B3A37"/>
<circle cx="550" cy="188" r="1" fill="#3B3A37"/>
<circle cx="25" cy="163" r="1" fill="#3B3A37"/>
<circle cx="75" cy="163" r="1" fill="#3B3A37"/>
<circle cx="125" cy="163" r="1" fill="#3B3A37"/>
<circle cx="175" cy="163" r="1" fill="#3B3A37"/>
<circle cx="225" cy="163" r="1" fill="#3B3A37"/>
<circle cx="275" cy="163" r="1" fill="#3B3A37"/>
<circle cx="325" cy="163" r="1" fill="#3B3A37"/>
<circle cx="375" cy="163" r="1" fill="#3B3A37"/>
<circle cx="425" cy="163" r="1" fill="#3B3A37"/>
<circle cx="475" cy="163" r="1" fill="#3B3A37"/>
<circle cx="525" cy="163" r="1" fill="#3B3A37"/>
<circle cx="575" cy="163" r="1" fill="#3B3A37"/>
<circle cx="25" cy="113" r="1" fill="#3B3A37"/>
<circle cx="75" cy="113" r="1" fill="#3B3A37"/>
<circle cx="125" cy="113" r="1" fill="#3B3A37"/>
<circle cx="175" cy="113" r="1" fill="#3B3A37"/>
<circle cx="225" cy="113" r="1" fill="#3B3A37"/>
<circle cx="275" cy="113" r="1" fill="#3B3A37"/>
<circle cx="325" cy="113" r="1" fill="#3B3A37"/>
<circle cx="375" cy="113" r="1" fill="#3B3A37"/>
<circle cx="425" cy="113" r="1" fill="#3B3A37"/>
<circle cx="475" cy="113" r="1" fill="#3B3A37"/>
<circle cx="525" cy="113" r="1" fill="#3B3A37"/>
<circle cx="575" cy="113" r="1" fill="#3B3A37"/>
<path d="M176.597 74.92C177.845 74.92 178.925 75.376 179.837 76.288C180.749 77.2 181.205 78.28 181.205 79.528C181.205 80.776 180.749 81.856 179.837 82.768C178.925 83.68 177.845 84.136 176.597 84.136C175.349 84.136 174.269 83.68 173.357 82.768C172.445 81.856 171.989 80.776 171.989 79.528C171.989 78.28 172.445 77.2 173.357 76.288C174.269 75.376 175.349 74.92 176.597 74.92ZM180.341 92.128V123.304C180.341 125.32 180.749 126.688 181.565 127.408C182.429 128.128 183.845 128.488 185.813 128.488V130C184.997 129.952 183.749 129.904 182.069 129.856C180.437 129.76 178.781 129.712 177.101 129.712C175.469 129.712 173.813 129.76 172.133 129.856C170.453 129.904 169.205 129.952 168.389 130V128.488C170.357 128.488 171.749 128.128 172.565 127.408C173.429 126.688 173.861 125.32 173.861 123.304V100.768C173.861 98.608 173.477 97.024 172.709 96.016C171.941 94.96 170.501 94.432 168.389 94.432V92.92C169.925 93.064 171.413 93.136 172.853 93.136C174.245 93.136 175.565 93.064 176.813 92.92C178.109 92.728 179.285 92.464 180.341 92.128ZM213.675 91.912C215.499 91.912 217.011 92.152 218.211 92.632C219.459 93.112 220.491 93.784 221.307 94.648C222.219 95.608 222.867 96.808 223.251 98.248C223.635 99.688 223.827 101.632 223.827 104.08V123.304C223.827 125.32 224.235 126.688 225.051 127.408C225.915 128.128 227.331 128.488 229.299 128.488V130C228.483 129.952 227.235 129.904 225.555 129.856C223.875 129.76 222.243 129.712 220.659 129.712C219.075 129.712 217.515 129.76 215.979 129.856C214.491 129.904 213.363 129.952 212.595 130V128.488C214.323 128.488 215.547 128.128 216.267 127.408C216.987 126.688 217.347 125.32 217.347 123.304V102.496C217.347 101.008 217.227 99.64 216.987 98.392C216.747 97.144 216.195 96.136 215.331 95.368C214.515 94.6 213.243 94.216 211.515 94.216C209.499 94.216 207.723 94.792 206.187 95.944C204.699 97.096 203.523 98.68 202.659 100.696C201.843 102.664 201.435 104.872 201.435 107.32V123.304C201.435 125.32 201.795 126.688 202.515 127.408C203.235 128.128 204.459 128.488 206.187 128.488V130C205.419 129.952 204.267 129.904 202.731 129.856C201.243 129.76 199.707 129.712 198.123 129.712C196.539 129.712 194.907 129.76 193.227 129.856C191.547 129.904 190.299 129.952 189.483 130V128.488C191.451 128.488 192.843 128.128 193.659 127.408C194.523 126.688 194.955 125.32 194.955 123.304V100.768C194.955 98.608 194.571 97.024 193.803 96.016C193.035 94.96 191.595 94.432 189.483 94.432V92.92C191.019 93.064 192.507 93.136 193.947 93.136C195.339 93.136 196.659 93.064 197.907 92.92C199.203 92.728 200.379 92.464 201.435 92.128V100.624C202.683 97.36 204.411 95.104 206.619 93.856C208.875 92.56 211.227 91.912 213.675 91.912ZM244.035 80.968V92.992H254.691V94.432H244.035V122.296C244.035 124.552 244.443 126.136 245.259 127.048C246.075 127.96 247.203 128.416 248.643 128.416C250.083 128.416 251.331 127.84 252.387 126.688C253.443 125.488 254.355 123.496 255.123 120.712L256.563 121.072C256.083 123.856 255.123 126.208 253.683 128.128C252.291 130.048 250.131 131.008 247.203 131.008C245.571 131.008 244.227 130.792 243.171 130.36C242.115 129.976 241.179 129.4 240.363 128.632C239.307 127.528 238.563 126.208 238.131 124.672C237.747 123.136 237.555 121.096 237.555 118.552V94.432H230.643V92.992H237.555V81.976C238.755 81.928 239.907 81.832 241.011 81.688C242.115 81.544 243.123 81.304 244.035 80.968ZM275.393 91.912C279.617 91.912 282.905 93.208 285.257 95.8C287.657 98.344 288.857 102.328 288.857 107.752H263.441L263.369 106.384H281.945C282.041 104.032 281.849 101.872 281.369 99.904C280.889 97.888 280.121 96.28 279.065 95.08C278.057 93.88 276.737 93.28 275.105 93.28C272.897 93.28 270.929 94.384 269.201 96.592C267.521 98.8 266.513 102.304 266.177 107.104L266.393 107.392C266.297 108.112 266.225 108.904 266.177 109.768C266.129 110.632 266.105 111.496 266.105 112.36C266.105 115.624 266.633 118.432 267.689 120.784C268.745 123.136 270.113 124.936 271.793 126.184C273.521 127.384 275.297 127.984 277.121 127.984C278.561 127.984 279.929 127.768 281.225 127.336C282.521 126.856 283.721 126.088 284.825 125.032C285.929 123.976 286.889 122.56 287.705 120.784L289.145 121.36C288.617 122.944 287.753 124.48 286.553 125.968C285.353 127.456 283.841 128.68 282.017 129.64C280.193 130.552 278.081 131.008 275.681 131.008C272.225 131.008 269.249 130.216 266.753 128.632C264.305 127.048 262.409 124.864 261.065 122.08C259.769 119.248 259.121 116.008 259.121 112.36C259.121 108.136 259.793 104.512 261.137 101.488C262.481 98.416 264.377 96.064 266.825 94.432C269.273 92.752 272.129 91.912 275.393 91.912ZM316.71 91.912C318.006 91.912 319.134 92.176 320.094 92.704C321.102 93.232 321.87 93.928 322.398 94.792C322.974 95.608 323.262 96.544 323.262 97.6C323.262 98.8 322.878 99.856 322.11 100.768C321.39 101.68 320.406 102.136 319.158 102.136C318.15 102.136 317.262 101.824 316.494 101.2C315.726 100.528 315.342 99.592 315.342 98.392C315.342 97.48 315.582 96.712 316.062 96.088C316.59 95.416 317.166 94.888 317.79 94.504C317.454 94.024 316.95 93.784 316.278 93.784C314.79 93.784 313.422 94.24 312.174 95.152C310.926 96.016 309.87 97.144 309.006 98.536C308.142 99.928 307.47 101.416 306.99 103C306.51 104.536 306.27 105.976 306.27 107.32V122.584C306.27 124.936 306.942 126.52 308.286 127.336C309.678 128.104 311.55 128.488 313.902 128.488V130C312.798 129.952 311.238 129.904 309.222 129.856C307.206 129.76 305.07 129.712 302.814 129.712C301.182 129.712 299.55 129.76 297.918 129.856C296.334 129.904 295.134 129.952 294.318 130V128.488C296.286 128.488 297.678 128.128 298.494 127.408C299.358 126.688 299.79 125.32 299.79 123.304V100.768C299.79 98.608 299.406 97.024 298.638 96.016C297.87 94.96 296.43 94.432 294.318 94.432V92.92C295.854 93.064 297.342 93.136 298.782 93.136C300.174 93.136 301.494 93.064 302.742 92.92C304.038 92.728 305.214 92.464 306.27 92.128V101.128C306.798 99.736 307.542 98.344 308.502 96.952C309.51 95.512 310.71 94.312 312.102 93.352C313.494 92.392 315.03 91.912 316.71 91.912ZM359.285 92.92V94.36C358.373 94.456 357.533 94.864 356.765 95.584C355.997 96.304 355.277 97.576 354.605 99.4L342.797 130.36C342.605 130.36 342.413 130.36 342.221 130.36C342.029 130.36 341.813 130.36 341.573 130.36L328.325 98.464C327.557 96.592 326.789 95.464 326.021 95.08C325.301 94.648 324.677 94.432 324.149 94.432V92.92C325.109 92.968 326.093 93.04 327.101 93.136C328.157 93.184 329.285 93.208 330.485 93.208C331.973 93.208 333.533 93.184 335.165 93.136C336.845 93.088 338.405 93.016 339.845 92.92V94.432C338.645 94.432 337.565 94.528 336.605 94.72C335.693 94.864 335.093 95.32 334.805 96.088C334.565 96.856 334.805 98.176 335.525 100.048L344.525 122.296L344.093 122.656L352.301 101.128C352.925 99.544 353.165 98.296 353.021 97.384C352.925 96.424 352.445 95.704 351.581 95.224C350.765 94.744 349.493 94.456 347.765 94.36V92.92C348.629 92.968 349.373 93.016 349.997 93.064C350.621 93.064 351.221 93.088 351.797 93.136C352.421 93.136 353.093 93.136 353.813 93.136C354.917 93.136 355.901 93.112 356.765 93.064C357.677 93.016 358.517 92.968 359.285 92.92ZM371.41 130.504C369.442 130.504 367.738 130.144 366.298 129.424C364.858 128.656 363.754 127.6 362.986 126.256C362.266 124.912 361.906 123.352 361.906 121.576C361.906 119.464 362.386 117.736 363.346 116.392C364.354 115.048 365.626 113.968 367.162 113.152C368.698 112.336 370.306 111.664 371.986 111.136C373.714 110.56 375.346 110.032 376.882 109.552C378.418 109.024 379.666 108.424 380.626 107.752C381.634 107.08 382.138 106.192 382.138 105.088V100.624C382.138 98.608 381.826 97.072 381.202 96.016C380.626 94.96 379.834 94.264 378.826 93.928C377.818 93.544 376.69 93.352 375.442 93.352C374.242 93.352 372.946 93.52 371.554 93.856C370.21 94.192 369.13 94.888 368.314 95.944C369.226 96.136 370.018 96.616 370.69 97.384C371.362 98.152 371.698 99.136 371.698 100.336C371.698 101.536 371.314 102.496 370.546 103.216C369.778 103.888 368.794 104.224 367.594 104.224C366.202 104.224 365.17 103.792 364.498 102.928C363.874 102.016 363.562 101.008 363.562 99.904C363.562 98.656 363.874 97.648 364.498 96.88C365.122 96.112 365.914 95.392 366.874 94.72C367.978 93.952 369.394 93.304 371.122 92.776C372.898 92.2 374.89 91.912 377.098 91.912C379.066 91.912 380.746 92.152 382.138 92.632C383.53 93.064 384.682 93.712 385.594 94.576C386.842 95.728 387.658 97.144 388.042 98.824C388.426 100.456 388.618 102.424 388.618 104.728V124.744C388.618 125.944 388.786 126.808 389.122 127.336C389.506 127.864 390.082 128.128 390.85 128.128C391.378 128.128 391.882 128.008 392.362 127.768C392.842 127.528 393.418 127.144 394.09 126.616L394.882 127.84C393.874 128.608 392.914 129.256 392.002 129.784C391.09 130.264 389.866 130.504 388.33 130.504C386.938 130.504 385.786 130.264 384.874 129.784C383.962 129.304 383.266 128.608 382.786 127.696C382.354 126.736 382.138 125.536 382.138 124.096C380.842 126.256 379.282 127.864 377.458 128.92C375.682 129.976 373.666 130.504 371.41 130.504ZM374.002 127.624C375.586 127.624 377.05 127.168 378.394 126.256C379.786 125.344 381.034 123.976 382.138 122.152V108.04C381.562 108.856 380.722 109.552 379.618 110.128C378.514 110.656 377.314 111.208 376.018 111.784C374.722 112.312 373.474 112.96 372.274 113.728C371.122 114.448 370.162 115.408 369.394 116.608C368.626 117.808 368.242 119.368 368.242 121.288C368.242 123.208 368.746 124.744 369.754 125.896C370.81 127.048 372.226 127.624 374.002 127.624ZM408.493 73.552V123.304C408.493 125.32 408.901 126.688 409.717 127.408C410.581 128.128 411.997 128.488 413.965 128.488V130C413.149 129.952 411.901 129.904 410.221 129.856C408.589 129.76 406.933 129.712 405.253 129.712C403.621 129.712 401.965 129.76 400.285 129.856C398.605 129.904 397.357 129.952 396.541 130V128.488C398.509 128.488 399.901 128.128 400.717 127.408C401.581 126.688 402.013 125.32 402.013 123.304V82.192C402.013 80.032 401.629 78.448 400.861 77.44C400.093 76.384 398.653 75.856 396.541 75.856V74.344C398.077 74.488 399.565 74.56 401.005 74.56C402.397 74.56 403.717 74.488 404.965 74.344C406.261 74.152 407.437 73.888 408.493 73.552ZM424.631 121.792C425.879 121.792 426.959 122.248 427.871 123.16C428.783 124.072 429.239 125.152 429.239 126.4C429.239 127.648 428.783 128.728 427.871 129.64C426.959 130.552 425.879 131.008 424.631 131.008C423.383 131.008 422.303 130.552 421.391 129.64C420.479 128.728 420.023 127.648 420.023 126.4C420.023 125.152 420.479 124.072 421.391 123.16C422.303 122.248 423.383 121.792 424.631 121.792Z" fill="#EEEEEC"/>
</g>
<defs>
<clipPath id="clip0_76_2820">
<rect width="600" height="200" rx="16" fill="white"/>
</clipPath>
</defs>
</svg>
